<?xml version="1.0" encoding="UTF-8"?>
<svg width="1200pt" height="1200pt" version="1.1" viewBox="0 0 1200 1200" xmlns="http://www.w3.org/2000/svg">
 <path d="m985.56 608.76c0 105.02-41.719 205.75-115.98 280.01-74.266 74.266-174.99 115.99-280.02 115.99-105.02 0-205.75-41.723-280.01-115.99-74.266-74.262-115.99-174.99-115.99-280.01 0-105.03 41.723-205.75 115.99-280.02 74.262-74.266 174.99-115.98 280.01-115.98 105.03 0 205.75 41.719 280.02 115.98s115.98 174.99 115.98 280.02zm115.56-114.36 0.003906-0.003906c8.9609 31.645 7.3594 65.348-4.5625 96-5.0664 13.883-8.0156 28.445-8.7578 43.203 0 231.96-198.96 414.6-391.2 457.2-10.559 2.2812-21.238 5.6406-31.559 8.8789h-0.003907c-20.863 7.7852-42.797 12.316-65.039 13.441-25.672-1.3203-51.035-6.207-75.359-14.52-12-3.3594-22.559-6.4805-33.238-8.8789l-0.003906-0.003906c-108.83-24.66-206.09-85.473-275.91-172.52-69.824-87.039-108.09-195.18-108.56-306.76-0.76562-13.918-3.3477-27.676-7.6836-40.922-6.4727-17.758-8.7734-36.77-6.7188-55.559 5.4648-18.59 13.891-36.176 24.961-52.082 7.0273-10.742 13.129-22.062 18.238-33.84 69.84-187.32 251.16-308.04 461.88-308.04 23.461-1.7305 46.484-7.2852 68.16-16.441 31.078-11.039 63.359-22.441 92.52-12.84 34.922 12 77.762 46.801 115.56 77.879 14.762 12 28.68 24 40.199 31.922 19.988 13.07 41.359 23.895 63.723 32.281 37.559 15.84 76.441 32.281 96.84 64.32 44.16 69.602 36 112.56 28.559 147.24-4.832 16.25-5.5352 33.449-2.0391 50.039zm-432.36-338.4c1.1289 3.1758 4.6172 4.8398 7.7969 3.7188 37.477-13.324 79.051-8.1172 112.08 14.043 11.102 7.5547 21.117 16.598 29.758 26.879 1.9141 2.3672 5.2969 2.9297 7.8711 1.3047s3.5234-4.918 2.2109-7.6641c-13.41-28.527-38.328-49.996-68.52-59.043-15.113-4.7773-31.09-6.168-46.801-4.0781-15.688 1.9414-30.52 8.2188-42.84 18.121-1.8555 1.7031-2.4727 4.3711-1.5586 6.7188zm328.8 452.76c0-108.21-42.984-211.99-119.5-288.5-76.516-76.516-180.29-119.5-288.5-119.5-108.21 0-211.98 42.984-288.5 119.5-76.512 76.512-119.5 180.29-119.5 288.5 0 108.21 42.988 211.98 119.5 288.5 76.516 76.516 180.29 119.5 288.5 119.5 108.21 0 211.98-42.988 288.5-119.5 76.516-76.512 119.5-180.29 119.5-288.5zm62.52-112.68v-0.003906c-2.625-7.3594-4.5508-14.953-5.7578-22.68-1.3203-7.6797-2.6406-15.238-3.6016-23.039s-2.7617-15.359-3.9609-23.16c-1.1992-7.8008-3.3594-15.359-5.1602-23.16h0.003906c-8.9688-30.727-24.762-59.031-46.203-82.801-20.645-24.332-46.871-43.312-76.438-55.316-2.75-0.96484-5.7969 0.14844-7.2852 2.6523-1.4844 2.5078-1 5.7148 1.1641 7.6641 22.133 18.613 41.738 40.031 58.32 63.723 15.645 23.832 29.441 48.824 41.281 74.758l9.2383 19.68c2.6406 6.8398 5.2812 13.68 7.5586 20.641 2.2812 6.9609 3.3594 14.281 5.0391 21.359h0.003906c1.0508 7.3242 1.0508 14.758 0 22.082 0 7.4414-2.3984 14.762-2.3984 22.078h-0.003906c0.007813 3.6094 0.20703 7.2148 0.60156 10.801 0 3.6016 0 7.1992 0.71875 10.922 1.1875 15.082 3.7617 30.023 7.6797 44.641 0.70312 2.6211 2.9922 4.5117 5.7031 4.6992 2.707 0.19141 5.2383-1.3594 6.2969-3.8594 6.6992-14.402 10.762-29.887 12-45.723 2.2539-15.488 0.5625-31.297-4.918-45.961z"/>
</svg>
