<?xml version="1.0" encoding="UTF-8"?>
<svg id="Layer_1" data-name="Layer 1" xmlns="http://www.w3.org/2000/svg" xmlns:xlink="http://www.w3.org/1999/xlink" viewBox="0 0 124.62 37.72">
  <defs>
    <style>
      .cls-1 {
        fill: none;
      }

      .cls-2 {
        fill: #fff;
      }

      .cls-3 {
        clip-path: url(#clippath);
      }
    </style>
    <clipPath id="clippath">
      <rect class="cls-1" x="2.8" y="2.44" width="119.06" height="31.25"/>
    </clipPath>
  </defs>
  <g class="cls-3">
    <path class="cls-2" d="M64.18,32.58l-1.08-1.41c.49-.17.81-.56.81-.97,0-.31-.09-.55-.28-.72-.29-.27-.8-.38-1.56-.34h-1.04v.22h.1c.18,0,.28.11.28.33v2.76c0,.29-.15.33-.28.33h-.1v.23h1.47v-.23h-.09c-.2,0-.28-.1-.28-.33v-1.17h.15l1.31,1.73h.94v-.23h-.08c-.1,0-.18-.1-.27-.2M63.14,30.2c0,.4-.34.73-.76.73h-.25v-1.38c.13-.05.24-.04.25-.04.42,0,.76.3.76.69M80.44,29.37h.1c.13,0,.28.04.28.33v2.76c0,.23-.08.33-.28.33h-.1v.23h1.47v-.23h-.08c-.2,0-.28-.1-.28-.33v-2.76c0-.3.16-.33.28-.33h.08v-.23h-1.47v.23ZM57.97,29.14h-3.1s-.09.04-.09.08l-.03.93h.21v-.06c.03-.37.16-.55.41-.55h.69v2.93c0,.22-.09.31-.3.31h-.08v.23h1.46v-.23h-.08c-.21,0-.28-.08-.28-.31v-2.93h.69c.17,0,.37.06.4.55v.06h.22l-.04-.92s-.04-.09-.08-.09M45.32,29.37h.16c.12,0,.2.07.2.2v2.19c0,.58-.51.89-1.02.89s-.84-.38-.84-.93v-2.04c0-.15.13-.3.26-.3h.08v-.22h-1.43v.22h.07c.16,0,.27.16.27.3v2.02c0,.8.64,1.37,1.55,1.37s1.49-.52,1.49-1.29v-2.19c0-.09.03-.2.18-.2h.18v-.22h-1.15v.22ZM77.26,31.91c-.15.49-.4.71-.82.71h-.87c-.07,0-.14-.09-.14-.17v-2.73c0-.24.09-.35.29-.35h.09v-.22h-1.47v.22h.09c.07,0,.28,0,.28.35v2.73c0,.3-.16.34-.28.34h-.09v.23h2.83l.34-1.14h-.24v.04ZM50.48,30.54l-.07-.04c-.25-.14-.4-.34-.4-.54,0-.16.09-.31.26-.41.18-.11.4-.1.62.02.3.17.49.5.49.86v.06h.23v-1.35h-.22v.05c-.02.06-.05.1-.08.12-.04.02-.11.01-.19-.02-.56-.27-1.01-.23-1.39.1-.23.22-.36.55-.33.88.03.32.22.59.52.78.09.06.2.12.3.18.33.2.68.4.82.61.19.26.15.51-.12.75-.18.16-.43.18-.68.07-.29-.13-.58-.48-.58-.95v-.06h-.23v1.39h.22v-.05c.03-.07.06-.12.11-.14.04-.02.09-.01.14.02.23.12.51.2.79.2.24,0,.49-.06.7-.23.42-.32.56-.89.32-1.32-.22-.42-.77-.72-1.22-.97M71.01,32.5l-1.45-3.35s-.03-.07-.1-.09c-.03,0-.08,0-.13.06l-1.39,3.36c-.06.14-.17.3-.33.3h-.13v.23h1.12v-.23h-.11c-.06,0-.11-.03-.14-.07-.02-.03-.03-.07-.01-.1l.34-.79h1.25l.34.79c.02.05,0,.09-.01.11-.03.04-.07.06-.11.06h-.16v.23h1.43v-.23h-.1c-.11,0-.21-.09-.29-.29M69.74,31.42h-.91l.46-1.05.45,1.05ZM88.68,32.79c-.11,0-.21-.09-.29-.29l-1.45-3.35s-.03-.08-.1-.09c-.03,0-.08,0-.13.06l-1.39,3.36c-.07.14-.17.3-.33.3h-.13v.23h1.12v-.23h-.11c-.06,0-.11-.03-.14-.07-.02-.03-.03-.07-.01-.1l.34-.79h1.25l.34.79c.02.05,0,.09-.01.11-.03.04-.07.06-.11.06h-.16v.23h1.43v-.23h-.1ZM87.12,31.42h-.91l.46-1.05.45,1.05ZM39.41,32.5l-1.45-3.35s-.03-.07-.1-.09c-.03,0-.08,0-.13.06l-1.39,3.36c-.06.14-.17.3-.33.3h-.13v.23h1.12v-.23h-.11c-.06,0-.11-.03-.14-.07-.02-.03-.03-.07-.01-.1l.34-.79h1.25l.34.79c.02.05,0,.09-.01.11-.03.04-.07.06-.11.06h-.16v.23h1.43v-.23h-.1c-.11,0-.21-.09-.29-.29M38.13,31.42h-.91l.46-1.05.45,1.05ZM100.96,7.43c.15.09.31.19.48.29.58.35,1.24.74,1.5,1.09.35.47.28.91-.22,1.34-.33.28-.76.33-1.2.14-.51-.23-1.03-.85-1.03-1.69v-.09h-.38v2.42h.35l.02-.07c.04-.13.11-.22.2-.26.07-.03.15-.02.23.03.44.23.9.35,1.34.35.47,0,.9-.13,1.24-.4.73-.54.98-1.55.57-2.3-.39-.74-1.37-1.29-2.26-1.75-.43-.24-.68-.59-.69-.94,0-.29.15-.57.44-.76.33-.19.74-.17,1.13.05.41.24.85.75.85,1.49v.09h.35v-2.31h-.33v.08c-.03.1-.06.16-.12.19-.08.04-.21.02-.39-.05-.99-.45-1.75-.39-2.39.2-.41.38-.64.97-.58,1.52.05.55.37,1.02.89,1.34M92.3,8.97h-.39l-.02.06c-.27.84-.71,1.22-1.46,1.22h-1.66c-.14,0-.24-.1-.24-.24v-2.34h1.8c.31,0,.39.33.39.53v.13h.38v-2h-.38v.13c0,.2-.11.53-.39.53h-1.8v-2.21h1.95c.47,0,.8.38.83.98v.09h.36l-.14-1.69h-4.91v.36h.13c.35,0,.5.18.5.6v4.84c0,.42-.15.6-.5.6h-.13v.36h5.04l.62-1.95ZM107.98,10.56h-.13c-.35,0-.51-.18-.51-.6v-4.84c0-.41.16-.6.51-.6h.13v-.36h-2.55v.36h.16c.35,0,.5.18.5.6v4.84c0,.42-.15.6-.5.6h-.16v.36h2.55v-.36ZM45.47,10.56h-.13c-.35,0-.5-.18-.5-.6v-2.17h2.63v2.17c0,.42-.16.6-.53.6h-.13v.36h2.57v-.36h-.16c-.35,0-.5-.18-.5-.6v-4.84c0-.41.16-.6.5-.6h.16v-.36h-2.57v.36h.13c.36,0,.53.19.53.6v2.02h-2.63v-2.02c0-.4.16-.6.5-.6h.13v-.36h-2.54v.36h.13c.36,0,.5.17.5.6v4.84c0,.44-.14.6-.5.6h-.13v.36h2.54v-.36ZM56.04,8.97h-.39l-.02.07c-.25.84-.7,1.21-1.46,1.21h-1.66c-.14,0-.24-.1-.24-.24v-2.34h1.81c.26,0,.38.27.38.53v.13h.38v-2h-.38v.13c0,.22-.12.53-.38.53h-1.81v-2.21h1.95c.48,0,.8.37.83.98v.09h.36l-.12-1.69h-4.92v.36h.13c.35,0,.52.19.52.6v4.84c0,.41-.16.6-.52.6h-.13v.36h5.05l.61-1.95ZM116.04,5.02l2,3.05v1.89c0,.43-.15.61-.51.61h-.13v.36h2.58v-.36h-.13c-.38,0-.53-.16-.53-.58v-1.96l1.78-3.04c.19-.29.42-.45.67-.45h.09v-.38h-1.8v.38h.26s.09.03.12.09c.03.05.05.14,0,.21l-1.43,2.44-1.57-2.39c-.06-.12-.02-.21,0-.25.04-.06.1-.1.16-.1h.24v-.38h-2.51v.38h.09c.16,0,.38.05.61.48M69.03,4.69c.08.09.15.17.23.27.05.06.11.13.19.22v4.98c0,.27-.25.39-.49.39h-.16v.38h2.02v-.38h-.13c-.26,0-.52-.13-.52-.39v-4.11l4.18,4.85.03.03h.27v-5.99c0-.27.25-.4.5-.4h.13v-.36h-2v.36h.15c.23,0,.49.13.49.4v3.5l-3.69-4.27h-1.82v.36h.09c.26,0,.41.02.53.16M80.03,5.02l2.51,5.8v.02c.06.06.14.1.21.1h.02c.07,0,.13-.04.17-.11l2.28-5.78c.18-.38.33-.53.52-.53h.09v-.36h-1.7v.36h.19c.08,0,.15.04.2.11.03.04.06.12.03.21l-1.55,3.85-1.69-3.85c-.04-.09,0-.17.02-.21.05-.07.13-.11.18-.11h.31v-.36h-2.42v.36h.09c.21,0,.36.15.52.5M60.47,3.55v4.5c0,1.76,1.38,2.99,3.36,2.99s3.26-1.17,3.26-2.85V3.36c0-.33.15-.49.47-.49h.37v-.43h-2.57v.43h.41c.3,0,.46.17.46.49v4.83c0,1.38-1.18,2-2.28,2s-1.93-.86-1.93-2.1V3.55c0-.36.3-.68.65-.68h.2v-.43h-3.24v.43h.19c.39,0,.65.35.65.68M78.61,10.56h-.12c-.36,0-.51-.18-.51-.6v-4.84c0-.41.16-.6.51-.6h.12v-.36h-2.53v.36h.12c.38,0,.54.18.54.6v4.84c0,.42-.16.6-.54.6h-.12v.36h2.53v-.36ZM114.65,4.16h-5.43c-.06,0-.13.07-.13.13l-.06,1.61h.33v-.09c.04-.66.28-.98.74-.98h1.23v5.16c0,.39-.16.56-.54.56h-.12v.36h2.53v-.36h-.12c-.37,0-.52-.16-.52-.56v-5.16h1.22c.29,0,.67.1.72.98v.09h.35l-.07-1.61c0-.06-.07-.13-.13-.13M94.96,4.85c.24-.1.45-.08.46-.08.75,0,1.34.54,1.34,1.23s-.6,1.29-1.34,1.29h-.46v-2.44ZM95.61,10.56h-.13c-.35,0-.52-.18-.52-.6v-2.07h.29l2.3,3.03h1.63v-.36h-.13c-.18,0-.33-.17-.49-.36l-1.91-2.49c.87-.3,1.43-.97,1.43-1.7,0-.55-.16-.96-.48-1.26-.5-.47-1.39-.66-2.73-.59h-1.82v.36h.16c.34,0,.5.2.5.6v4.84c0,.41-.15.6-.5.6h-.16v.36h2.55v-.36ZM49,16.68h-5.21v.36h.13c.36,0,.52.19.52.62v4.83c0,.41-.16.6-.52.6h-.13v.35h2.56v-.35h-.16c-.35,0-.5-.17-.5-.58v-2.31h1.82c.36,0,.38.45.38.54v.12h.36v-2h-.36v.13c0,.09-.02.53-.38.53h-1.82v-2.2h2.26c.46,0,.8.39.83.98v.09h.34l-.12-1.7ZM69.01,23.09h-.13v.35h5.05l.59-1.95h-.37l-.02.06c-.27.85-.72,1.23-1.46,1.23h-1.64c-.13,0-.27-.09-.27-.25v-2.33h1.83c.24,0,.39.28.39.54v.12h.35v-2h-.35v.13c0,.26-.14.53-.39.53h-1.83v-2.2h1.95c.5,0,.82.37.85.97v.09h.34l-.12-1.7h-4.91v.36h.13c.36,0,.51.19.51.61v4.84c0,.41-.16.6-.51.6M86,17.04h.13c.25,0,.52.15.52.4v3.52l-3.69-4.25-.03-.03h-1.82v.36h.09c.28,0,.42.05.51.16l.1.11c.11.12.21.22.35.39v4.97c0,.28-.26.4-.5.4h-.15v.36h2v-.36h-.14c-.25,0-.5-.12-.5-.4v-4.11l4.17,4.85.03.03h.27v-5.99c0-.26.25-.4.49-.4h.15v-.36h-1.99v.36ZM99.37,21.46l-.02.07c-.27.87-.72,1.26-1.46,1.26h-1.53c-.12,0-.25-.16-.25-.32v-4.8c0-.43.16-.63.53-.63h.13v-.36h-2.56v.36h.15c.34,0,.5.2.5.63v4.8c0,.55-.29.61-.5.61h-.15v.36h4.94l.59-1.98h-.38ZM120.66,20.04c0,1.77-1.04,2.79-2.85,2.79-.22,0-.35,0-.56-.06v-5.48c.21-.11.52-.07.54-.07.95-.02,1.67.24,2.17.78.75.82.7,2.01.69,2.04M121,17.72c-.7-.73-1.77-1.08-3.19-1.04h-2.59v.36h.15c.22,0,.5.07.5.62v4.8c0,.42-.15.61-.5.61h-.15v.36h3.14c1.95,0,3.48-1.49,3.48-3.38,0-.09.08-1.37-.84-2.34M102.31,20.68l.83-1.9.82,1.9h-1.65ZM106.16,22.57l-2.55-5.88s-.06-.13-.17-.14c-.05,0-.13,0-.21.1l-2.44,5.9c-.11.25-.31.54-.59.54h-.21v.36h1.93v-.36h-.17c-.1,0-.21-.05-.27-.13-.04-.06-.05-.12-.02-.19l.6-1.41h2.21l.61,1.4c.04.1,0,.17-.02.21-.05.07-.13.11-.21.11h-.27v.36h2.47v-.36h-.16c-.21,0-.38-.17-.52-.51M112.25,17.04h.09c.25,0,.51.15.51.4v3.52l-3.67-4.25-.03-.03h-1.82v.36h.09c.27,0,.41.05.5.16l.1.11c.11.12.21.22.35.39v4.97c0,.26-.25.4-.5.4h-.13v.36h1.99v-.36h-.12c-.26,0-.51-.12-.51-.4v-4.11l4.17,4.85.03.03h.27v-5.99c0-.27.24-.4.49-.4h.16v-.36h-1.96v.36ZM80.4,21.56c-.27.86-.71,1.23-1.46,1.23h-1.66c-.12,0-.24-.09-.24-.25v-2.33h1.8c.27,0,.42.27.42.54v.12h.35v-2h-.35v.13c0,.25-.13.53-.42.53h-1.8v-2.2h1.95c.48,0,.8.37.83.98v.09h.34l-.12-1.7h-4.89v.36h.12c.35,0,.51.2.51.61v4.84c0,.41-.16.6-.51.6h-.12v.35h5.03l.62-1.95h-.39l-.02.07ZM54.31,19.2c.01-1.41.34-2.44.99-3.06.58-.55,1.23-.57,1.33-.57h.02c1.19,0,2.4,1.12,2.4,3.63,0,1.81-.73,3.63-2.36,3.63-1.44,0-2.38-1.42-2.38-3.63M60.67,25.37h.09v-.4h-.09c-1.25-.08-2.19-.91-2.57-1.68,1.62-.58,2.63-2.11,2.63-4.04-.05-3.46-2.69-4.38-4.08-4.38h0c-2.33.02-4.03,1.84-4.03,4.32,0,2.17,1.29,3.88,3.22,4.26,1.24,1.27,2.86,1.91,4.83,1.91M67.43,21.25v-3.85c0-.23.12-.36.33-.36h.3v-.36h-1.98v.36h.27c.22,0,.36.14.36.36v3.85c0,1.03-.91,1.58-1.81,1.58s-1.49-.68-1.49-1.66v-3.58c0-.28.23-.54.47-.54h.13v-.36h-2.49v.36h.1c.29,0,.49.29.49.54v3.54c0,1.4,1.11,2.38,2.7,2.38s2.6-.91,2.6-2.26M38.87,22.83h-.03c-.49,0-.94-.19-1.32-.56-.65-.64-1.02-1.76-1.03-3.07,0-.82.16-3.52,2.37-3.63.87.05,2.33.57,2.38,3.57,0,2.21-.95,3.69-2.38,3.69M38.88,14.87c-.09,0-1.53-.06-2.69.99-.83.75-1.28,1.87-1.35,3.33,0,2.5,1.7,4.31,4.04,4.31s4.03-1.81,4.03-4.31-1.66-4.29-4.03-4.32M92.94,20.83c-.38-.73-1.34-1.26-2.12-1.68l-.14-.08c-.45-.25-.7-.6-.71-.96,0-.29.17-.55.46-.73.31-.19.72-.18,1.1.03.53.29.87.89.87,1.52v.09h.38v-2.34h-.36l-.02.07c-.02.11-.06.18-.12.21-.07.04-.19.02-.35-.04-.97-.46-1.76-.4-2.42.18-.41.38-.62.97-.57,1.52.06.55.38,1.03.9,1.35.16.1.33.2.51.31.6.35,1.21.72,1.47,1.08.33.46.26.91-.22,1.34-.33.28-.77.32-1.21.12-.52-.24-1.03-.85-1.03-1.68v-.09h-.38v2.39h.36v-.06c.04-.12.11-.21.19-.25.08-.03.16-.03.26.02.4.21.89.36,1.38.36.42,0,.85-.11,1.21-.39.74-.55.98-1.54.56-2.29M41.93,2.6c0-.07-.07-.16-.15-.16h-6.71c-.07,0-.15.09-.15.16l-.09,2.08h.39v-.09c.03-.6.22-1.3.97-1.3h1.45v6.53c0,.37-.3.69-.64.69h-.46v.42h3.77v-.42h-.47c-.34,0-.64-.32-.64-.69V3.28h1.45c.75,0,.94.71.97,1.3v.09h.39l-.09-2.08ZM28.49,3.09v15.54c0,6-5.23,12.12-12.51,14.38-7.3-2.27-12.53-8.39-12.53-14.38V3.09h25.04M29.14,2.44H2.8v16.19c0,6.36,5.46,12.67,12.99,15.01l.19.06.19-.06c7.51-2.34,12.97-8.65,12.97-15.01V2.44ZM9.4,13.73c-.14,0-.26.14-.31.33h.61c-.05-.19-.17-.33-.31-.33M9.4,14.71c.14,0,.26-.14.31-.33h-.61c.05.19.17.33.31.33M9.4,17.49c.14,0,.26-.14.31-.33h-.61c.05.19.17.33.31.33M9.4,16.51c-.14,0-.26.14-.31.33h.61c-.05-.19-.17-.33-.31-.33M25.73,7.76c-.91,1.91-2.33,3.15-5.58,3.67.52-3.26,1.76-4.67,3.67-5.58h0s-15.69,0-15.69,0h0c1.91.91,3.15,2.33,3.67,5.59-3.26-.52-4.67-1.76-5.58-3.67h0v15.69h0c.91-1.91,2.33-3.15,5.58-3.67-.52,3.26-1.76,4.67-3.67,5.58h0s15.69,0,15.69,0h0c-1.91-.91-3.15-2.33-3.67-5.59,3.26.52,4.67,1.76,5.58,3.67h0V7.76h0ZM16.29,12.87c0-.48.5-.77,1.16-.77.98,0,1.5.32,2.04.21v5.21h-1.7c-.81,0-.94.03-1.5.26v-4.91ZM12.44,12.3c.54.1,1.06-.21,2.04-.21.66,0,1.16.29,1.16.77v4.91c-.56-.23-.69-.26-1.5-.26h-1.7v-5.21ZM22.37,16.51c.27,0,.49.22.49.49s-.22.49-.49.49h-1.58v1.27h-3.01q-.61,0-1,.16c-.21.09-.51.21-.83.21s-.61-.12-.83-.21q-.39-.16-.99-.16h-3v-1.27h-1.21c-.12.2-.31.33-.52.33-.32,0-.58-.28-.64-.65h-.18c-.09,0-.16-.07-.16-.16s.07-.16.16-.16h.18c.06-.37.32-.65.64-.65.21,0,.4.13.52.33h1.21v-1.8h-1.21c-.12.2-.31.33-.52.33-.32,0-.58-.28-.64-.65h-.18c-.09,0-.16-.07-.16-.16s.07-.16.16-.16h.18c.06-.37.32-.65.64-.65.21,0,.4.13.52.33h1.21v-.93l.65-.37v5.68h2.35c.74,0,.79.02,1.25.21.13.06.34.16.58.16s.45-.11.58-.16c.46-.19.51-.21,1.25-.21h2.35v-5.6l.65.29v.93h1.58c.27,0,.49.22.49.49s-.22.49-.49.49h-1.58v1.8h1.58Z"/>
  </g>
</svg>